{"title":"Raiders of the Lost Ark(1981)Mp-4[DaScubaDude]","uid":12708617,"size":1149305790,"categoryP":"video","categoryS":"movies","magnet":"?xt=urn:btih:23b3e87c0b5e3bae0e34e9d096fdd998f3edbe9e&amp;dn=Raiders+of+the+Lost+Ark%281981%29Mp-4%5BDaScubaDude%5D&amp;tr=udp%3A%2F%2Ftracker.leechers-paradise.org%3A6969&amp;tr=udp%3A%2F%2Fzer0day.ch%3A1337&amp;tr=udp%3A%2F%2Fopen.demonii.com%3A1337&amp;tr=udp%3A%2F%2Ftracker.coppersurfer.tk%3A6969&amp;tr=udp%3A%2F%2Fexodus.desync.com%3A6969","seeders":1,"leechers":0,"uploader":"dascuba","files":1,"time":1446868306,"description":"Raiders of the Lost Ark (1981)\r\nPG  |  115 min  |  Action, Adventure  |  12 June 1981 (USA)\r\n8.6 Your rating:   -/10   Ratings: 8.6/10 from 605,569 users   Metascore: 90/100 \r\nReviews: 750 user | 224 critic | 11 from Metacritic.com\r\nArchaeologist and adventurer Indiana Jones is hired by the US government to find the Ark of the Covenant before the Nazis.\r\n\r\nDirector: Steven Spielberg\r\nWriters: Lawrence Kasdan (screenplay), George Lucas (story), 1 more credit »\r\nStars: Harrison Ford, Karen Allen, Paul Freeman \r\n\r\nGeneral\r\nComplete name                            : C:Indiana Jones and the Raiders of the Lost ArkINDIANA_JONES_LOST_ARK_Title1.mp4\r\nFormat                                   : MPEG-4\r\nFormat profile                           : Base Media\r\nCodec ID                                 : isom\r\nFile size                                : 1.07 GiB\r\nDuration                                 : 1h 55mn\r\nOverall bit rate                         : 1 330 Kbps\r\nMovie name                               : INDIANA_JONES_LOST_ARK\r\nGenre                                    : Action\r\nWriting application                      : Lavf54.6.100\r\n\r\nVideo\r\nID                                       : 1\r\nFormat                                   : AVC\r\nFormat/Info                              : Advanced Video Codec\r\nFormat profile                           :   \r\nFormat settings, CABAC                   : No\r\nFormat settings, ReFrames                : 6 frames\r\nCodec ID                                 : avc1\r\nCodec ID/Info                            : Advanced Video Coding\r\nDuration                                 : 1h 55mn\r\nBit rate                                 : 1 196 Kbps\r\nWidth                                    : 720 pixels\r\nHeight                                   : 404 pixels\r\nDisplay aspect ratio                     : 16:9\r\nFrame rate mode                          : Constant\r\nFrame rate                               : 29.970 fps\r\nColor space                              : YUV\r\nChroma subsampling                       : 4:2:0\r\nBit depth                                : 8 bits\r\nScan type                                : Progressive\r\nBits/(Pixel*Frame)                       : 0.137\r\nStream size                              : 985 MiB (90%)\r\n\r\nAudio\r\nID                                       : 2\r\nFormat                                   : AAC\r\nFormat/Info                              : Advanced Audio Codec\r\nFormat profile                           : LC\r\nCodec ID                                 : 40\r\nDuration                                 : 1h 55mn\r\nBit rate mode                            : Constant\r\nBit rate                                 : 128 Kbps\r\nChannel(s)                               : 2 channels\r\nChannel positions                        : Front: L R\r\nSampling rate                            : 44.1 KHz\r\nCompression mode                         : Lossy\r\nStream size                              : 105 MiB (10%)","torrent":{"xt":"urn:btih:23b3e87c0b5e3bae0e34e9d096fdd998f3edbe9e","amp;dn":"Raiders+of+the+Lost+Ark%281981%29Mp-4%5BDaScubaDude%5D","amp;tr":["udp%3A%2F%2Ftracker.leechers-paradise.org%3A6969","udp%3A%2F%2Fzer0day.ch%3A1337","udp%3A%2F%2Fopen.demonii.com%3A1337","udp%3A%2F%2Ftracker.coppersurfer.tk%3A6969","udp%3A%2F%2Fexodus.desync.com%3A6969"],"infoHash":"23b3e87c0b5e3bae0e34e9d096fdd998f3edbe9e","infoHashBuffer":{"type":"Buffer","data":[35,179,232,124,11,94,59,174,14,52,233,208,150,253,217,152,243,237,190,158]},"announce":[],"urlList":[]}}